<svg xmlns="http://www.w3.org/2000/svg" width="30" height="16" viewBox="0 0 30 16"><path d="M.984,15.476c.113-.176.255-.205.476-.1.51.235,1.011.478,1.531.7a32.627,32.627,0,0,0,6.253,1.94q1.535.316,3.1.494a34.637,34.637,0,0,0,4.663.218c.854-.017,1.708-.075,2.557-.159a33.768,33.768,0,0,0,8.015-1.793.809.809,0,0,1,.447-.05c.329.075.442.377.2.582a3.429,3.429,0,0,1-.471.31,20.336,20.336,0,0,1-4.889,2.007,26.632,26.632,0,0,1-3.686.737,24.7,24.7,0,0,1-2.611.2,1.218,1.218,0,0,0-.123.013H15.415a1.218,1.218,0,0,0-.123-.013c-.177-.008-.353-.013-.525-.017a24.4,24.4,0,0,1-2.474-.222,25.11,25.11,0,0,1-3.946-.876A22.776,22.776,0,0,1,1.2,15.8a1.507,1.507,0,0,1-.216-.239ZM8.74,4.575,8.529,4.6a4.381,4.381,0,0,0-1.865.633c-.118.071-.226.147-.348.226A.16.16,0,0,1,6.3,5.4c-.02-.113-.039-.23-.064-.344-.034-.193-.147-.277-.373-.277H5.294c-.339,0-.4.054-.4.344v8.769a1.076,1.076,0,0,0,0,.126.223.223,0,0,0,.241.209c.344,0,.692,0,1.036,0a.228.228,0,0,0,.245-.209,1.076,1.076,0,0,0,0-.126V10.859c.054.038.083.059.108.08a3.888,3.888,0,0,0,2.994.645,2.937,2.937,0,0,0,2.15-1.462,3.778,3.778,0,0,0,.506-1.848,4.175,4.175,0,0,0-.4-2.086A2.815,2.815,0,0,0,9.628,4.642c-.157-.029-.319-.042-.481-.063-.137,0-.27,0-.407,0ZM6.413,6.33A.141.141,0,0,1,6.5,6.192a3.813,3.813,0,0,1,2.238-.553,1.761,1.761,0,0,1,1.644,1.085,3.452,3.452,0,0,1,.241,1.383,3.583,3.583,0,0,1-.2,1.282,1.916,1.916,0,0,1-2.091,1.194A3.774,3.774,0,0,1,6.5,10a.145.145,0,0,1-.083-.138c0-.591,0-1.177,0-1.768s0-1.173,0-1.764Zm10.1-1.755c-.049,0-.1.013-.142.017a8.437,8.437,0,0,0-1.419.172c-.3.067-.589.159-.879.243a.309.309,0,0,0-.26.323c0,.138,0,.277,0,.415,0,.2.1.256.334.205.383-.084.766-.176,1.153-.239a6.347,6.347,0,0,1,1.826-.059A1.271,1.271,0,0,1,17.948,6a1.049,1.049,0,0,1,.26.687c.015.348.01.7.015,1.043a.284.284,0,0,1-.01.059c-.025,0-.044,0-.064,0a10.281,10.281,0,0,0-1.571-.205,4.874,4.874,0,0,0-1.634.163A2.332,2.332,0,0,0,13.5,8.789a1.9,1.9,0,0,0-.191,1.286A1.742,1.742,0,0,0,14.36,11.4a3.277,3.277,0,0,0,1.86.226,4.385,4.385,0,0,0,1.978-.771.369.369,0,0,1,.079-.046c.029.159.054.31.088.461a.264.264,0,0,0,.265.218c.265,0,.535,0,.8,0a.223.223,0,0,0,.236-.2.938.938,0,0,0,0-.117V6.736a2.87,2.87,0,0,0-.044-.54,1.657,1.657,0,0,0-.933-1.274,3.182,3.182,0,0,0-1.07-.3c-.177-.021-.353-.034-.53-.054-.191,0-.388,0-.584,0Zm1.718,5.35a.134.134,0,0,1-.074.126,4.12,4.12,0,0,1-1.836.624,1.956,1.956,0,0,1-.825-.075.911.911,0,0,1-.609-.557,1.186,1.186,0,0,1,0-.813,1.073,1.073,0,0,1,.8-.654A3.506,3.506,0,0,1,16.9,8.483c.412.029.815.1,1.227.142.079.008.1.042.1.109,0,.2,0,.4,0,.6S18.223,9.728,18.228,9.925Zm12.757,5.421c-.049-.209-.236-.289-.447-.348a5.011,5.011,0,0,0-1.031-.163,8.453,8.453,0,0,0-1.924.08,5.608,5.608,0,0,0-1.963.654.643.643,0,0,0-.182.147.187.187,0,0,0-.025.168c.02.063.1.08.177.075a.93.93,0,0,0,.108,0c.383-.034.761-.071,1.144-.1a11.3,11.3,0,0,1,1.684-.038,4.06,4.06,0,0,1,.707.113.436.436,0,0,1,.373.436,2.669,2.669,0,0,1-.172.976,16.047,16.047,0,0,1-.776,1.889.665.665,0,0,0-.049.126c-.025.121.059.2.2.172a.553.553,0,0,0,.236-.1,6.657,6.657,0,0,0,.623-.561,5.292,5.292,0,0,0,1.212-2.329c.039-.151.069-.306.1-.457v-.725ZM24.5,10.184q-.95-2.244-1.9-4.491c-.1-.239-.206-.473-.309-.708a.323.323,0,0,0-.314-.2c-.373,0-.746-.008-1.124,0a.145.145,0,0,0-.157.189,1.619,1.619,0,0,0,.093.256q1.443,3.048,2.9,6.1a.494.494,0,0,1,.01.494c-.162.306-.29.628-.456.934a1.091,1.091,0,0,1-.746.557,2.412,2.412,0,0,1-.756.046c-.123-.008-.245-.034-.368-.042-.167-.008-.25.054-.255.2s0,.278,0,.415c0,.23.1.335.363.373a6.183,6.183,0,0,0,.83.084,2.159,2.159,0,0,0,1.939-.9,5.244,5.244,0,0,0,.452-.771q1.745-3.758,3.465-7.524a1,1,0,0,0,.079-.23c.02-.117-.044-.184-.182-.184-.324,0-.653,0-.977,0a.374.374,0,0,0-.378.218c-.025.059-.054.113-.079.172l-1.708,4.19c-.123.3-.25.607-.378.93-.02-.046-.029-.071-.044-.1Z" transform="translate(-0.984 -4.57)"/></svg>