<svg xmlns="http://www.w3.org/2000/svg" width="30" height="12" viewBox="0 0 30 12"><path d="M5.478,10.312A1.859,1.859,0,0,1,4,10.993,1.994,1.994,0,0,1,4.531,9.5,2.223,2.223,0,0,1,6,8.768a2.138,2.138,0,0,1-.52,1.544m.511.786c-.816-.046-1.514.452-1.9.452s-.984-.429-1.631-.416A2.418,2.418,0,0,0,.416,12.345C-.465,13.82.186,16,1.039,17.2c.417.594.914,1.247,1.57,1.224.623-.023.867-.393,1.617-.393s.975.393,1.631.384c.68-.014,1.106-.594,1.523-1.188a5.1,5.1,0,0,0,.68-1.366A2.167,2.167,0,0,1,6.734,13.9a2.194,2.194,0,0,1,1.073-1.841A2.337,2.337,0,0,0,5.989,11.1m4.706-1.654v8.9h1.42V15.3h1.964a2.863,2.863,0,0,0,3.051-2.937,2.83,2.83,0,0,0-3-2.923H10.695Zm1.42,1.165h1.636c1.233,0,1.936.64,1.936,1.763a1.694,1.694,0,0,1-1.94,1.772H12.115Zm7.6,7.807a2.353,2.353,0,0,0,2.09-1.137h.028v1.069h1.312V13.916c0-1.284-1.055-2.115-2.676-2.115-1.5,0-2.62.841-2.662,1.992h1.28a1.245,1.245,0,0,1,1.341-.909c.867,0,1.355.393,1.355,1.119V14.5l-1.772.105c-1.645.1-2.536.754-2.536,1.9A2,2,0,0,0,19.717,18.415ZM20.1,17.36c-.755,0-1.237-.356-1.237-.9,0-.562.464-.886,1.35-.936l1.575-.1v.5A1.527,1.527,0,0,1,20.1,17.36Zm4.8,3.408c1.383,0,2.034-.516,2.6-2.074L30,11.888H28.553l-1.669,5.258h-.028l-1.669-5.258H23.706l2.4,6.482-.131.393a1.123,1.123,0,0,1-1.2.927c-.112,0-.328-.014-.417-.023v1.069A5.039,5.039,0,0,0,24.906,20.768Z" transform="translate(0.004 -8.768)"/></svg>