<svg xmlns="http://www.w3.org/2000/svg" width="30" height="21" viewBox="0 0 30 21"><path d="M25.151,20.006a.584.584,0,1,1-.583-.548A.552.552,0,0,1,25.151,20.006ZM8.964,19.458a.549.549,0,1,0,.568.548A.545.545,0,0,0,8.964,19.458Zm6.12-.014a.466.466,0,0,0-.495.408h.995A.463.463,0,0,0,15.083,19.444Zm5.615.014a.549.549,0,1,0,0,1.1.539.539,0,0,0,.583-.548A.546.546,0,0,0,20.7,19.458Zm5.516,1.223c0,.014.016.023.016.052s-.016.023-.016.052c-.016.014-.016.023-.026.037a.07.07,0,0,1-.057.023c-.016.014-.026.014-.057.014a.112.112,0,0,1-.057-.014c-.016,0-.026-.014-.042-.023s-.026-.023-.026-.037a.079.079,0,0,1-.016-.052c0-.023,0-.037.016-.052a.085.085,0,0,1,.026-.052.187.187,0,0,1,.042-.023.1.1,0,0,1,.057-.014.074.074,0,0,1,.057.014c.026.014.042.014.057.023S26.2,20.658,26.214,20.681Zm-.115.066c.026,0,.026-.014.042-.014a.053.053,0,0,0,0-.075c-.016,0-.026-.014-.057-.014H26v.164h.042v-.066h.016l.057.066h.042l-.057-.061ZM30,4.57v16.5a2.386,2.386,0,0,1-2.5,2.25H2.5A2.386,2.386,0,0,1,0,21.07V4.57A2.386,2.386,0,0,1,2.5,2.32h25A2.386,2.386,0,0,1,30,4.57ZM3.333,11.114c0,3.586,3.234,6.492,7.214,6.492a7.85,7.85,0,0,0,3.984-1.083,6.561,6.561,0,0,1,0-10.8,7.8,7.8,0,0,0-3.984-1.083C6.568,4.631,3.333,7.542,3.333,11.114ZM15,16.214a6.1,6.1,0,0,0,0-10.2A6.1,6.1,0,0,0,15,16.214ZM7.589,19.791a.7.7,0,0,0-.766-.689.774.774,0,0,0-.667.3.712.712,0,0,0-.635-.3.688.688,0,0,0-.552.253v-.206H4.542v1.72h.427c0-.886-.13-1.416.469-1.416.531,0,.427.478.427,1.416h.411c0-.858-.13-1.416.469-1.416.531,0,.427.469.427,1.416H7.6V19.791Zm2.339-.642H9.516v.206a.786.786,0,0,0-.609-.253.906.906,0,1,0,0,1.809.755.755,0,0,0,.609-.253v.216h.411Zm2.109,1.2c0-.7-1.193-.384-1.193-.713,0-.267.62-.225.964-.052l.172-.3c-.49-.286-1.573-.281-1.573.384s1.193.389,1.193.7c0,.3-.7.272-1.078.038l-.182.3C10.922,21.056,12.036,20.981,12.036,20.348Zm1.844.436-.115-.319c-.2.1-.635.206-.635-.192V19.5h.682v-.347H13.13v-.525H12.7v.525h-.4v.342h.4v.783c0,.825.9.675,1.177.511Zm.693-.628h1.432c0-.759-.385-1.059-.906-1.059a.889.889,0,0,0-.948.9c0,.961,1.177,1.12,1.76.666l-.2-.281c-.406.3-1.021.272-1.141-.23Zm3.078-1.008a.651.651,0,0,0-.792.206v-.206h-.427v1.72h.427V19.9c0-.544.495-.473.667-.394Zm.552.858c0-.534.6-.708,1.078-.394l.2-.3c-.6-.427-1.7-.192-1.7.7,0,.928,1.167,1.116,1.7.7l-.2-.3C18.8,20.714,18.2,20.531,18.2,20.006Zm3.474-.858H21.25v.206a.915.915,0,1,0,0,1.3v.216h.427Zm1.755,0a.669.669,0,0,0-.792.206v-.206h-.411v1.72h.411V19.9c0-.516.469-.483.667-.394Zm2.1-.7H25.12v.9a.915.915,0,1,0,0,1.3v.216h.411Zm.4-3.52v.216h.042V14.93h.1v-.037h-.24v.037h.1Zm.344,5.8a.131.131,0,0,0-.016-.075c-.016-.014-.026-.037-.042-.052s-.042-.023-.057-.038-.057-.014-.083-.014a.607.607,0,0,1-.073.014.273.273,0,0,0-.057.038.074.074,0,0,0-.042.052.131.131,0,0,0-.016.075.125.125,0,0,0,.016.066.074.074,0,0,0,.042.052.181.181,0,0,0,.057.037.155.155,0,0,0,.073.014.174.174,0,0,0,.083-.014c.016-.014.042-.023.057-.037s.026-.038.042-.052A.125.125,0,0,0,26.271,20.733Zm.167-5.845h-.073l-.083.164-.083-.164h-.073v.253h.042v-.192l.083.164h.057l.073-.164v.192h.057Zm.229-3.773c0-3.572-3.234-6.483-7.214-6.483a7.85,7.85,0,0,0-3.984,1.083,6.561,6.561,0,0,1,0,10.8A7.832,7.832,0,0,0,19.453,17.6c3.979,0,7.214-2.9,7.214-6.488Z" transform="translate(0 -2.32)"/></svg>