<svg xmlns="http://www.w3.org/2000/svg" width="30.849" height="8.221" viewBox="0 0 30.849 8.221"><path d="M19.564,22.171H18.409a.333.333,0,0,0-.276.146L16.54,24.664l-.675-2.255a.334.334,0,0,0-.32-.238H14.41a.2.2,0,0,0-.189.264l1.272,3.733-1.2,1.688a.2.2,0,0,0,.163.316h1.154a.335.335,0,0,0,.274-.143l3.841-5.543a.2.2,0,0,0-.164-.314Zm-7.721,2.237a1.281,1.281,0,0,1-1.3,1.1.89.89,0,0,1-.952-1.117,1.286,1.286,0,0,1,1.288-1.106.968.968,0,0,1,.766.313.989.989,0,0,1,.195.813Zm1.6-2.237H12.3a.2.2,0,0,0-.2.169l-.05.321-.08-.116a1.637,1.637,0,0,0-1.358-.482,2.642,2.642,0,0,0-2.565,2.312,2.168,2.168,0,0,0,.428,1.765,1.8,1.8,0,0,0,1.447.584,2.2,2.2,0,0,0,1.591-.657l-.051.319a.2.2,0,0,0,.2.231h1.035a.333.333,0,0,0,.329-.281l.621-3.933a.2.2,0,0,0-.2-.231Zm-6.9.027c-.131.861-.789.861-1.425.861H4.762l.254-1.608a.2.2,0,0,1,.2-.169h.166c.433,0,.842,0,1.053.246a.8.8,0,0,1,.117.669Zm-.277-2.247h-2.4a.333.333,0,0,0-.329.282l-.97,6.153a.2.2,0,0,0,.2.231H3.917a.333.333,0,0,0,.329-.281l.262-1.66a.333.333,0,0,1,.329-.282H5.6a2.464,2.464,0,0,0,2.731-2.281,1.847,1.847,0,0,0-.306-1.548,2.224,2.224,0,0,0-1.748-.613Zm25.641.169-.985,6.265a.2.2,0,0,0,.2.231h.991a.333.333,0,0,0,.329-.282l.971-6.153a.2.2,0,0,0-.2-.231H32.111a.2.2,0,0,0-.2.169Zm-2.956,4.287a1.281,1.281,0,0,1-1.3,1.1.89.89,0,0,1-.952-1.117A1.286,1.286,0,0,1,28,23.282a.968.968,0,0,1,.766.313.989.989,0,0,1,.195.813Zm1.6-2.237H29.41a.2.2,0,0,0-.2.169l-.05.321-.081-.116a1.636,1.636,0,0,0-1.357-.482,2.642,2.642,0,0,0-2.565,2.312,2.168,2.168,0,0,0,.428,1.765,1.8,1.8,0,0,0,1.447.584,2.2,2.2,0,0,0,1.591-.657l-.051.319a.2.2,0,0,0,.2.231h1.035a.333.333,0,0,0,.329-.281l.621-3.933a.2.2,0,0,0-.2-.231Zm-6.9.027c-.131.861-.789.861-1.425.861h-.362l.254-1.608a.2.2,0,0,1,.2-.169h.166c.433,0,.842,0,1.053.246a.8.8,0,0,1,.116.669Zm-.277-2.247h-2.4a.333.333,0,0,0-.329.282l-.97,6.153a.2.2,0,0,0,.2.231h1.231a.233.233,0,0,0,.23-.2l.275-1.745a.333.333,0,0,1,.329-.282h.759a2.464,2.464,0,0,0,2.731-2.281,1.847,1.847,0,0,0-.306-1.548,2.224,2.224,0,0,0-1.748-.613Z" transform="translate(-2.571 -19.952)"/></svg>