<svg xmlns="http://www.w3.org/2000/svg" width="30.849" height="13.53" viewBox="0 0 30.849 13.53"><path d="M14.895,27.878h1.437v.378H15.273l-.151.832h.832l-.076.378h-.832l-.076.907h1.058v.378H14.517l.378-2.873Zm2.042,2.5h1.134l-.076.378H16.483l.378-2.873h.454l-.378,2.5Zm1.89-2.5h1.512l-.076.378H19.2l-.076.832h.832l-.076.378h-.832l-.151.907h1.134l-.076.378H18.449l.378-2.873Zm2.268.378a1.373,1.373,0,0,1,.983-.454,1.03,1.03,0,0,1,.756.3l-.227.378a.877.877,0,0,0-.6-.3q-.907,0-1.058,1.134a1.065,1.065,0,0,0,.151.794.694.694,0,0,0,.6.34,1.089,1.089,0,0,0,.756-.378V30.6a1.226,1.226,0,0,1-.756.227q-1.287,0-1.134-1.512a1.77,1.77,0,0,1,.529-1.058Zm2.193-.378H25.4l-.076.378h-.907l-.3,2.5h-.454l.378-2.5h-.832l.076-.378Zm4.083.378a.9.9,0,0,1-.076.794.884.884,0,0,1-.6.491l.681,1.21h-.454l-.681-1.21h-.227l-.151,1.21H25.48l.378-2.873h.907a.59.59,0,0,1,.6.378Zm-.529.681q.378-.681-.151-.681h-.454l-.151.907h.454l.3-.227Zm3.629.378q-.3,1.514-1.437,1.512a1.043,1.043,0,0,1-.87-.454,1.405,1.405,0,0,1-.265-1.058q.3-1.512,1.437-1.512,1.285,0,1.134,1.512Zm-.529-.832a.684.684,0,0,0-.6-.378q-.907,0-1.058,1.21a1.186,1.186,0,0,0,.151.832.68.68,0,0,0,.6.378c.6,0,.956-.4,1.058-1.21a1.192,1.192,0,0,0-.151-.832Zm3.478-.6-.378,2.873h-.378l-1.058-2.193-.378,2.193h-.378l.454-2.873h.378L32.664,30l.378-2.117ZM31.453,24.1h.076v.076h-.076v.076h.076v.076H31.6l-.076-.076.076-.076a.068.068,0,0,0-.076-.076h-.151v.227h.076V24.1ZM7.767,18.276a1,1,0,0,0-1.13-.813H2.6l-.03.2c2.771.708,5.046,2.214,6.071,5.062l-.874-4.444ZM8.9,24.06,8.641,22.72a6.047,6.047,0,0,0-3.255-3.284L7.42,27.118h2.636l3.932-9.656H11.337L8.9,24.06Zm7.035,3.072,1.566-9.67H15l-1.567,9.67ZM22.755,17.3c-2.47,0-4.2,1.311-4.217,3.193-.015,1.387,1.235,2.154,2.184,2.622.979.467,1.3.783,1.3,1.2,0,.648-.783.934-1.491.934a4.739,4.739,0,0,1-2.35-.5l-.332-.166L17.5,26.756a7.285,7.285,0,0,0,2.787.513c2.621.015,4.324-1.3,4.353-3.3,0-1.1-.677-1.928-2.109-2.622-.873-.436-1.4-.753-1.4-1.2,0-.406.451-.829,1.431-.829a4.155,4.155,0,0,1,1.868.362l.226.12L25,17.7a6.212,6.212,0,0,0-2.244-.407Zm6.719.166a1.237,1.237,0,0,0-1.311.813l-3.706,8.856h2.621c.423-1.189.528-1.446.528-1.446H30.8s.076.332.3,1.446h2.32L31.4,17.463H29.473ZM28.313,23.7s.211-.558.995-2.7c-.015.015.211-.558.332-.919l.18.829c.467,2.3.573,2.787.573,2.787h-2.08Z" transform="translate(-2.571 -17.297)"/></svg>